<?xml version="1.0" encoding="UTF-8"?>
<svg id="Layer_1" xmlns="http://www.w3.org/2000/svg" version="1.1" viewBox="0 0 500 500">
  <!-- Generator: Adobe Illustrator 30.1.0, SVG Export Plug-In . SVG Version: 2.1.1 Build 136)  -->
  <defs>
    <style>
      .st0 {
        fill: #9cc;
      }

      .st1 {
        display: none;
        font-family: SundayMidnight, 'Sunday Midnight';
        font-size: 55.63px;
      }
    </style>
  </defs>
  <text class="st1" transform="translate(137.8 206.14)"><tspan x="0" y="0">Brag</tspan></text>
  <g>
    <path class="st0" d="M172.63,228.37c-5.72-8.21-14.66-14.97-26.58-20.09-.18-.12-.33-.25-.46-.43-.08-.11-.17-.22-.27-.34,3.77-2.99,7.3-6.35,10.52-10.01,3.72-4.23,6.87-8.8,9.35-13.59,2.51-4.84,4.23-10.04,5.1-15.43.88-5.47.56-11.19-.97-17-2.22-8.47-7.11-14.5-14.52-17.94-7.28-3.37-15.57-3.88-24.61-1.51-4.67,1.23-8.88,3.04-12.52,5.42l-9.35,6.37-2.32-3.66c-8.74-17.07-22.3-23.34-40.29-18.62-3.87,1.02-8.31,2.73-13.19,5.08-4.85,2.34-9.81,5.22-14.76,8.56-4.96,3.34-9.74,7.16-14.2,11.35-4.5,4.23-8.37,8.89-11.5,13.84-3.16,5-5.44,10.33-6.77,15.85-1.36,5.63-1.28,11.46.26,17.33,1.27,4.86,4.09,8.45,8.36,10.69,4.21,2.21,8.77,2.7,13.57,1.44,6.17-1.62,11.09-4.85,14.61-9.61,3.39-4.58,5.46-9.53,6.16-14.71.17-.47.25-1.11.05-1.9-.2-.75-.59-1.57-1.19-2.49-.45-.69-.86-1.42-1.22-2.17l-1.07-2.23-1.92,1.56c-1.89,1.54-3.53,3.34-4.87,5.36-1.21,1.82-2.46,3.58-3.72,5.22-1.2,1.57-2.55,3.02-4.02,4.3-1.34,1.18-2.91,1.99-4.79,2.48-1.4.37-2.93.47-4.56.31-.96-.09-1.72-1.15-2.24-3.14-.38-1.44-.39-2.79-.04-4,.44-1.52.94-3.02,1.47-4.39,3.86-9.38,9.82-17.84,17.7-25.13,7.86-7.26,17.22-12.35,27.82-15.13,1.02-.27,2.28-.55,3.83-.86,1.35-.27,2.68-.32,3.94-.17,1.21.15,2.3.55,3.33,1.21.85.55,1.49,1.66,1.93,3.32,1.03,3.91.59,8.65-1.3,14.07-1.98,5.67-4.58,11.14-7.72,16.26l-.1.18c-4.86,10.15-9.06,20.24-12.47,29.98-3.3,9.43-6.08,19.76-8.28,30.71-8.14,2.25-15.61,5.49-22.2,9.65-6.95,4.39-12.67,9.76-17,15.95-4.34,6.2-7.28,13.22-8.75,20.85-1.47,7.66-1.09,15.86,1.14,24.37,3.33,12.7,9.29,23.41,17.71,31.85,8.36,8.38,18.11,14.9,28.97,19.39,10.82,4.47,22.53,7.09,34.8,7.78,2.3.13,4.59.19,6.87.19,9.81,0,19.32-1.19,28.35-3.56,13.12-3.44,24.66-8.64,34.3-15.47,9.66-6.84,17.49-15.05,23.27-24.41,5.78-9.36,9.52-19.79,11.09-30.99,1.57-11.19.77-22.98-2.4-35.05-2.55-9.71-6.71-18.76-12.36-26.88ZM82.6,307.12c.29-1.87.22-3.67-.23-5.36-.66-2.51-1.41-4.98-2.22-7.36-.77-2.21-1.44-4.41-1.99-6.53-1.39-5.29-2.34-10.75-2.84-16.23-.46-4.97-.27-11.14.57-18.35,6.92,2.01,12.31,5.37,16.06,10.02,4.22,5.24,7.11,10.75,8.59,16.39.99,3.78,1.49,7.26,1.48,10.35,0,3.43.51,7.15,1.54,11.08l.07.2c.8,2.09,2.34,3.61,4.58,4.52,2.11.86,4.22,1.03,6.24.5,3.66-.96,6.18-3,7.5-6.06,1.17-2.71,1.81-5.73,1.89-8.97.08-3.12-.19-6.3-.82-9.46-.62-3.13-1.16-5.53-1.63-7.34-3.11-11.85-8.52-21.11-16.09-27.52-7.05-5.96-16.01-10.37-26.64-13.1,1.36-4.6,2.64-8.78,3.91-12.73,1.47-4.57,3.06-9.13,4.75-13.56,1.69-4.43,3.62-8.98,5.74-13.5,2.11-4.51,4.63-9.4,7.49-14.55l.12-.25c1.07-2.81,2.73-5.84,4.95-9.01,2.23-3.19,4.86-6.28,7.82-9.19,2.95-2.91,6.13-5.48,9.45-7.65,3.27-2.13,6.63-3.65,10-4.54,2.4-.63,4.85-.71,7.28-.24,2.01.39,3.11,1.37,3.58,3.16l.16.62c.66,11.73-1.6,21.49-6.71,29-5.23,7.69-12.52,14.51-21.71,20.3-3.66,2.46-7.41,4.63-11.16,6.46-3.91,1.91-7.9,4.29-11.87,7.09l-3.05,2.15,3.5,1.28c2.88,1.05,5.66,1.79,8.27,2.2,2.57.41,5.09.65,7.5.72,2.32.06,4.73.07,7.17.02,2.28-.05,4.71.07,7.18.34,9.67,1.14,17.33,4.17,22.76,8.99,5.45,4.84,9.25,11.28,11.31,19.14,4.9,18.68,3.67,35.18-3.63,49.06-7.36,13.98-19.49,25.64-36.09,34.69-2.41,1.37-4.95,2.55-7.55,3.51-2.64.97-5.32,1.82-7.95,2.5-8.2,2.15-16.96,2.84-26.04,2.04-9.11-.8-17.77-2.89-25.75-6.22-7.94-3.31-15-7.97-21-13.83-5.92-5.78-9.94-12.63-11.97-20.34-2.51-9.58-2.08-18.09,1.27-25.3,3.39-7.28,9.28-13.56,17.42-18.61,1.39-.76,2.73-1.57,3.99-2.39,1.06-.69,2.49-1.27,4.25-1.73l2.56-.67c.17-.05.36-.08.57-.11.22,7.83,1.25,15.3,3.07,22.23.64,2.44,1.8,5.75,3.54,10.13,1.73,4.35,3.84,8.62,6.27,12.66,2.45,4.09,5.08,7.62,7.82,10.48,3.16,3.31,6.5,4.53,9.93,3.63,3.47-.91,4.52-3.1,4.78-4.77Z"/>
    <path class="st0" d="M499.83,320.45c-.58-2.84-2.27-4.14-3.58-4.73-1.71-.77-3.85-.87-6.57-.31l-2.46.5c-1.08.22-1.99.69-2.72,1.41-2.49,2.08-4.75,4.32-6.69,6.66-1.91,2.29-3.79,4.43-5.59,6.35-1.76,1.88-3.69,3.55-5.73,4.95-1.95,1.33-4.36,2.3-7.18,2.88-4.65.96-9.87.93-15.51-.09-5.13-.92-10.11-2.27-14.83-4.02,2.95-8.88,5.49-18.2,7.55-27.72,2.19-10.1,4.11-20.65,5.72-31.34,1.59-10.61,3.05-21.52,4.33-32.43,1.28-10.9,2.63-21.81,4.03-32.52.1-1.4.15-2.85.15-4.31,0-1.54-.18-3.12-.5-4.7-.52-2.55-1.74-4.42-3.63-5.56-1.84-1.11-3.94-1.43-6.25-.96-1.58.32-3.12,1.1-4.6,2.32-1.34,1.12-2.55,2.42-3.6,3.88-.98,1.36-1.85,2.68-2.59,3.93-.42.7-.78,1.3-1.1,1.81-.16,0-.3.01-.44.03l-3.16-1.07c-3.69-1.6-7.27-2.58-10.63-2.89-3.37-.31-6.74-.13-10.01.54-9.06,1.86-16.89,5.82-23.26,11.76-6.3,5.88-11.29,12.88-14.83,20.82-3.25,7.3-5.43,15.13-6.51,23.31-.18.37-.37.76-.54,1.13l-3.89,8.2c-1.17,2.33-2.53,4.77-4.05,7.24-1.49,2.44-3.13,4.75-4.87,6.88-1.71,2.09-3.41,3.83-5.08,5.17-1.86,1.5-3,1.91-3.64,1.99-.55.06-.74-.1-.91-.3-.24-.29-.67-1.04-.89-2.83-.15-1.18-.2-2.68-.16-4.45.05-1.76.36-3.93.93-6.47l.04-.24c.48-5.01,1.14-9.8,1.97-14.23.83-4.45,1.87-8.86,3.08-13.11,1.21-4.26,2.54-8.65,3.96-13.04,1.37-4.23,2.81-8.84,4.27-13.71.78-1.45,1.48-3.14,2.1-5.02.71-2.15.96-3.97.76-5.57-.23-1.88-1.04-3.57-2.41-5.05-1.26-1.36-2.78-2.44-4.51-3.2-1.62-.71-3.23-1.23-4.8-1.54-1.67-.33-3.13-.41-4.45-.25-3.04.38-5.87,1.98-8.41,4.76-1.83,2-3.57,3.88-5.21,5.61-6.89-2.09-13.77-2.73-20.47-1.89-7.71.96-14.99,4.1-21.64,9.31-6.55,5.13-12.18,11.48-16.73,18.86-4.31,6.99-7.63,14.62-9.91,22.67-1.52,2.2-3.15,4.56-4.89,7.11-3.56,5.2-7.55,10.35-11.86,15.31-4.17,4.79-8.41,8.19-12.6,10.11l-.32.15-.25.25c-.48.48-.86.55-1.13.55-.44,0-.97-.13-1.57-1.06-.85-1.33-.94-1.78-.94-1.74,0-3.73.99-7.34,2.95-10.74,2.09-3.63,4.49-7.28,7.13-10.83,2.73-3.67,5.21-7.39,7.37-11.06,2.31-3.92,3.48-7.96,3.48-12.01s-1.31-7.68-3.88-11.09c-2.44-3.21-5.58-6.21-9.35-8.92-3.71-2.66-7.76-5.03-12.03-7.02-3.68-1.72-7.33-3.29-10.87-4.68.15-1.44.33-2.77.53-3.97.3-1.77.45-3.66.45-5.62,0-4.98-1.88-9.39-5.59-13.1s-8.87-5.59-15.33-5.59c-4.78,0-8.8,1.55-11.96,4.59-3.17,3.07-4.78,7.06-4.78,11.87s1.2,8.72,3.58,12.02c2.28,3.18,5.2,5.84,8.67,7.93,3.37,2.02,7.06,3.72,10.98,5.06,3.83,1.31,7.41,2.49,10.65,3.5,3.11.98,5.71,2.05,7.71,3.18,2.22,1.26,2.22,2.29,2.22,2.63,0,.66-.26,2.3-2.05,5.86-1.63,3.45-3.57,6.95-5.75,10.4-2.24,3.55-4.37,7.15-6.34,10.7-1.99,3.61-3.68,7.37-5.02,11.18-1.37,3.92-2.06,7.98-2.06,12.08,0,3.16.5,6.36,1.48,9.51,1.01,3.22,2.59,6.12,4.69,8.62,2.11,2.52,4.81,4.61,8.02,6.21,3.23,1.62,7.09,2.44,11.48,2.44,4.62,0,8.9-1.17,12.73-3.49,3.69-2.23,7.23-5.33,10.54-9.22,2.56-3.11,5.48-6.78,8.69-10.93,1-1.29,1.98-2.6,2.97-3.93.59,4.56,1.86,8.77,3.78,12.5,1.95,3.8,4.31,7.01,7.01,9.54,2.7,2.55,5.63,4.51,8.7,5.82,2.52,1.08,4.98,1.63,7.34,1.63.63,0,1.24-.04,1.85-.11,5.7-.71,11.31-3.32,16.68-7.73,4.57-3.76,8.9-7.7,12.9-11.74,3.74,3.71,7.01,6.66,9.74,8.78,3.42,2.66,7.47,3.72,12.05,3.15,6.67-.83,12.75-3.85,18.06-8.96,3.76-3.62,7.23-7.77,10.37-12.37,1.98,9.43,6.09,16.57,12.25,21.21,6.28,4.73,12.97,6.41,19.89,4.99,2.53-.52,5.09-1.4,7.63-2.62,1.67-.8,3.75-1.95,6.28-3.48-.13.65-.25,1.34-.37,2.04-.43,2.54-.89,5.14-1.38,7.8-.48,2.57-1.01,5.04-1.58,7.34-.38,1.54-.79,2.83-1.21,3.85-8.16-.29-16.16-.42-23.8-.38-8.15.04-16.3.89-24.23,2.51-5.19,1.07-9.84,3.14-13.83,6.17-3.94,2.99-7.24,6.53-9.8,10.54-2.55,3.99-4.35,8.24-5.34,12.63-.99,4.4-1.19,8.61-.58,12.62.87,4.23,2.55,8.21,5,11.84,2.45,3.61,5.57,6.68,9.29,9.14,3.71,2.44,7.96,4.15,12.65,5.09,2.12.42,4.35.64,6.65.64,2.79,0,5.71-.31,8.73-.93,6.38-1.31,12.31-3.57,17.64-6.72,5.28-3.12,10.24-6.94,14.76-11.36,4.47-4.37,8.72-9.28,12.64-14.61,3.64-4.96,7.12-10.15,10.36-15.45,7.38.62,14.14,1.26,20.1,1.92,6.49.72,13.28.36,20.19-1.06,3.96-.81,8.22-2.28,12.67-4.36,4.4-2.06,8.57-4.49,12.39-7.22,3.86-2.76,7.01-5.72,9.37-8.79,2.6-3.39,3.61-6.59,3-9.53ZM422.88,220.3c-.11,6.8-.89,13.93-2.32,21.22-1.61,8.12-3.25,15.96-4.88,23.33-1.49,6.81-4.19,12.52-8.02,16.97-3.92,4.55-9.04,8.81-15.2,12.63-1.15.67-1.64.8-1.76.83-1.15.24-3.28.67-4.29-4.25-.07-.32-.17-1.13-.09-2.92.35-9.28,1.26-18.54,2.68-27.53,1.4-8.83,4.47-17.24,9.13-25,1.76-2.9,4.34-6.16,7.67-9.7,3.13-3.33,6.17-5.32,9.03-5.91.9-.19,1.88-.28,2.93-.28,1.55,0,3.26.2,5.11.61ZM317.02,224.03c-.78,2.98-1.71,6.34-2.79,10.02-1.33,4.54-2.65,9.21-3.9,13.89-1.29,4.78-2.36,9.61-3.19,14.35-.8,4.56-1.26,8.74-1.38,12.45-2.63,4.33-5.54,8.19-8.64,11.48-3.06,3.24-6.87,6.42-11.32,9.43-4.11-.54-6.32-3.02-6.91-7.74-.74-5.95.16-12.58,2.67-19.7,2.57-7.28,5.92-14.24,9.97-20.71,4.04-6.45,8.35-12,12.81-16.48,4.24-4.26,7.85-6.61,10.71-6.97.36-.05.71-.07,1.05-.07.31,0,.61.02.91.06ZM192.43,206.73c-.15.87-.26,1.83-.35,2.88-1.93-.09-2.59-.83-2.93-1.4-.75-1.27-1.13-2.39-1.13-3.34,0-.46.12-1.32.7-2.76.25-.63.46-.84.45-.87,1.65,0,1.94.68,2.12,1.43.41,1.73.79,3.06,1.14,4.05ZM392.9,347.62c-1.63,3.59-3.74,7.24-6.27,10.85-2.55,3.63-5.48,6.97-8.72,9.93-3.25,2.96-6.8,5.6-10.56,7.84-3.69,2.19-7.65,3.74-11.79,4.59-1.73.35-3.62.32-5.63-.1-2.05-.44-3.98-1.21-5.74-2.29-1.78-1.1-3.37-2.47-4.73-4.09-1.3-1.55-2.12-3.21-2.51-5.08-.55-2.66-.21-5.06,1.02-7.33,1.31-2.43,3.15-4.6,5.47-6.47,2.38-1.92,5.17-3.58,8.31-4.94,3.17-1.38,6.37-2.41,9.5-3.05,4.56-.94,9.37-1.41,14.35-1.41.62,0,1.25,0,1.87.02,5.21.12,10.37.51,15.35,1.16l.08.38Z"/>
  </g>
</svg>