<?xml version="1.0" encoding="UTF-8"?>
<svg id="Layer_1" xmlns="http://www.w3.org/2000/svg" version="1.1" viewBox="0 0 500 500">
  <!-- Generator: Adobe Illustrator 30.1.0, SVG Export Plug-In . SVG Version: 2.1.1 Build 136)  -->
  <path d="M275.4,225.92c.73-94.08-135.02-62.88-143.55-54.84-8.53,7.8-.97,28.52,6.82,31.44,5.12-1.22,9.99-2.19,14.87-2.92.73,13.16,1.46,29,2.19,45.09-8.53-3.41-14.14-7.8-15.35-11.45-.6,2.63-.55,6.14.2,10.12-.74-.95-1.52-1.87-2.32-2.75-.12-.52-.23-1.02-.32-1.52-.07.31-.12.66-.15,1.02-9.18-9.8-22.25-15.83-36.65-19.3,19.01-10.24,21.2-21.45,21.2-21.45,0-11.7-1.95-26.57-9.99-32.41-16.57-4.87-44.84-3.41-67.27-.97-10.48-7.07-28.27.49-28.27.49.49.73.73,1.71.97,2.92-4.39.73-7.07,1.22-7.07,1.22-3.41,5.85.24,18.77,4.14,21.69.73.49,2.68.97,5.61.97.49,7.07.97,15.11,1.46,23.64-6.34,1.71-10.48,2.68-10.48,2.68l.24,2.68c-3.66.73-5.61,1.46-6.09,1.95-8.04,18.52,4.87,26.32,4.87,26.32,4.39-.24,8.53-.49,12.43-.49.49,13.16.73,26.57.97,39-9.99-2.44-18.28-5.61-23.88-9.02,2.68,21.2,12.43,32.9,24.62,39.48.24,10.24.49,17.06.97,19.25.98-.24,2.44-3.9,3.66-4.63,1.71-.97,1.22-2.44,2.19-7.56.73,2.44,2.44,4.63,3.66,2.68.73-1.46,1.71-2.92,2.68-4.63,15.11,3.9,30.95,2.68,39.73,2.68,41.43-.24,75.8-15.84,73.6-54.35-.09-1.58-.24-3.1-.43-4.6,1.83,1.67,3.78,3.12,5.79,4.35.98,32.66,1.71,60.93,2.44,65.07.98,0,1.71-2.68,2.93-3.17.49-.24,2.19.97,2.19.97l2.92-4.63,1.95.24s1.46-4.14,1.95-4.87c1.71-2.19,4.63-3.17,4.63-3.17,0,0,3.41-7.55,4.87-9.75,2.44-3.9,4.14-6.82,4.14-6.82,0,0,.73-9.99,1.71-25.1h1.46c5.12,0,12.92-.24,21.69-1.46,10.72,13.65,21.94,30.71,26.81,49.72l2.19,2.44s4.87-1.22,6.34-1.46c1.46-.24,4.39-5.12,4.39-5.12,0,0,.73.97,1.22,1.46,3.17-10.24-6.09-41.43-6.09-41.43,0,0,9.99,15.84,8.53,38.51,3.41-14.87-.73-35.58-9.99-52.4,17.79-7.8,32.41-21.45,32.66-45.82ZM88.96,190.34c-7.31,6.09-21.45,11.94-35.58,16.82,0-5.12-.24-10.24-.24-15.84,16.57-1.46,32.9-2.68,35.83-.97ZM120.88,272.96c-21.2,15.35-47.77,19.98-71.17,19.25,1.22-9.02,2.68-22.91,3.41-42.65,71.41,1.71,67.75,23.4,67.75,23.4ZM256.39,219.09c-1.22,16.09-39,31.44-68.49,31.68.97-15.11,1.71-31.44,1.95-46.79,0-3.17,0-6.09-.24-8.53,43.38-1.71,67.75,9.99,66.78,23.64Z"/>
  <path d="M381.17,314.63l-3.41-4.14s1.71.73,1.22.24c-7.55-13.16-84.57-19.74-110.16-4.87-7.07,15.84-2.19,39.24,14.87,33.63,20.23-6.58,67.75-12.19,93.83-8.53l2.19,1.22s2.19-8.29,2.68-9.99c.49-1.71-3.41-7.07-3.41-7.07l2.19-.49Z"/>
  <path d="M499.62,260.77c1.71-9.99-2.44-31.2-12.43-32.41-21.2-2.93-67.27,4.87-83.6,6.82.25.98,1.22,1.46,2.93,1.95.73,0,21.45-3.17,35.83-2.44-21.94,3.17-33.15,5.36-32.41,6.09,6.09,7.8,14.87,17.55,24.86,20.47,1.71,0,31.68,3.17,49.48,4.39-9.5,12.67-26.81,26.08-47.28,26.08-26.32,0-45.09-21.69-44.36-37.05.97-30.22,33.15-66.05,71.9-46.31,7.8-3.17,13.4-19.99,13.65-30.71.73-31.2-101.87-19.99-105.04,73.36-.15,4.58,0,8.93.35,13.09-12.7-39.77-18.04-72.07-19.85-84.98-1.71-11.21-10.72-14.38-20.23-14.14-5.61-3.9-16.82-4.63-36.8-1.71-5.36,44.36-17.31,79.21-28.76,107.48,1.46,0,2.19,1.71,2.92,3.41-.24,10.48,4.39,19.25,15.6,17.3,20.96-3.9,49.48-7.07,74.58,0l2.19,1.46s3.17-7.55,3.9-9.5c1.22,2.19,2.19,4.39,2.19,4.39l2.68-2.19,2.19,1.22,2.68,1.71,1.46-2.3c10.61,28.97,35.93,42.51,60.44,42.51,38.51,0,64.83-30.22,60.93-68ZM310,252c5.12-9.99,9.99-20.47,14.38-31.68,4.39,11.7,9.26,24.13,14.62,36.56-8.77-2.44-19.01-4.39-29-4.88Z"/>
</svg>